<svg width="97" height="30" viewBox="0 0 97 30" fill="none" xmlns="http://www.w3.org/2000/svg">
<g clip-path="url(#clip0_326_2137)">
<path d="M45.1533 14.8489C40.0499 14.8489 36.3807 17.3833 34.7849 22.3968C33.189 27.4118 35.236 29.9724 40.3394 29.9724C45.4428 29.9724 49.1208 27.4104 50.7167 22.3968C52.3125 17.3833 50.2567 14.8489 45.1533 14.8489ZM41.3019 26.9483C39.0066 26.9483 38.3248 25.6128 39.349 22.3968C40.3732 19.1809 41.8955 17.873 44.1908 17.873C46.4861 17.873 47.1768 19.1809 46.1525 22.3968C45.1283 25.6128 43.5972 26.9483 41.3019 26.9483Z" fill="white"/>
<path d="M65.4802 14.8489C63.4553 14.8489 61.8272 15.7208 60.2461 16.7845L60.515 15.9402C60.5179 15.93 60.5179 15.9213 60.5208 15.9126L60.8427 14.9215H56.2815L55.9509 15.9402L51.7394 29.1833L51.4793 30.0014H56.0405L56.2918 29.2124C56.2947 29.2022 56.3006 29.1935 56.3035 29.1847L58.6414 21.8286C59.169 20.1734 60.7133 18.6577 62.4679 18.1941C62.7779 18.1128 63.0821 18.0663 63.376 18.0663C64.8616 18.0663 65.5919 18.9934 64.8719 21.2546L62.3518 29.1847C62.3489 29.1949 62.3488 29.2036 62.3459 29.2124L62.0946 30.0014H66.6558L66.9159 29.1833L69.436 21.2531L69.4463 21.2183C70.8658 16.7191 68.982 14.8489 65.4802 14.8489Z" fill="white"/>
<path d="M31.508 26.5501L30.3501 26.6286L30.0003 26.6518C29.8578 26.6591 29.7593 26.6663 29.6183 26.6736L28.5294 26.7346C27.4229 26.7971 27.0041 26.4309 27.0041 26.4309C26.5089 25.9877 26.3855 25.1608 26.7617 23.9794L26.8733 23.6291L28.6279 18.1375H29.1716C29.2465 18.1447 29.3229 18.1491 29.4023 18.1491H33.1097L34.1368 14.9215H29.6521L30.7527 11.444L31.0128 10.6258H26.4516L26.2003 11.4149C26.1974 11.4251 26.1915 11.4338 26.1886 11.4425L22.1975 23.9779C21.0308 27.6414 21.9477 29.5495 24.8719 29.9055V29.9114C24.9057 29.9128 24.941 29.9157 24.9763 29.9172C25.2849 29.9506 25.6081 29.9724 25.9593 29.9724C26.1842 29.9724 26.4178 29.968 26.6573 29.9622C26.8969 29.9622 27.1334 29.9608 27.3627 29.9564C27.4743 29.9622 27.589 29.9622 27.7065 29.955L27.8976 29.9448C29.367 29.9026 30.475 29.7995 30.475 29.7995L31.5065 26.5501H31.508Z" fill="white"/>
<path d="M87.0577 26.9497C84.7624 26.9497 84.0806 25.6142 85.1048 22.3983C86.129 19.1823 87.6513 17.8744 89.9466 17.8744C91.6556 17.8744 92.4741 18.601 92.358 20.2984H96.9456C97.3776 16.677 95.2425 14.8489 90.9091 14.8489C85.8057 14.8489 82.1365 17.3833 80.5407 22.3968C78.9448 27.4118 80.9918 29.9724 86.0952 29.9724C90.4183 29.9724 93.7187 28.1341 95.5967 24.5229H91.0076C90.0407 26.2115 88.7593 26.9483 87.0592 26.9483L87.0577 26.9497Z" fill="white"/>
<path d="M75.9839 14.9201H75.1742L74.7481 16.2657L70.7321 28.8839L70.375 30H71.1847H74.128H74.9376L75.2962 28.8839L79.3122 16.2657L79.7369 14.9201H78.9272H75.9839Z" fill="white"/>
<path d="M81.5457 8.52161H76.9816L75.6812 12.7824H80.2453L81.5457 8.52161Z" fill="white"/>
<path d="M87.4104 4.2608H82.8462L81.5458 8.52161H86.1084L87.4104 4.2608Z" fill="white"/>
<path d="M79.5929 0H75.0287L73.7283 4.2608H78.2909L79.5929 0Z" fill="white"/>
<path d="M13.9833 10.9252H10.6947L9.44564 14.6861H12.6623C17.1015 14.6861 17.7289 16.3762 16.4285 20.4626C15.1265 24.5505 13.4234 26.2406 8.98423 26.2406H5.76025L9.43829 14.6861H4.87564L0.390874 28.7749L0 30.0015H7.91153C14.9796 30.0015 18.9192 26.9773 20.9926 20.4641C23.066 13.9508 21.0528 10.9267 13.9848 10.9267L13.9833 10.9252Z" fill="white"/>
<path d="M6.07324 10.9252L7.32227 7.16431H6.27749H6.27014H3.84702H3.83967H2.69937L2.29087 8.44458L1.50177 10.9252H6.06442H6.07324Z" fill="white"/>
</g>
<defs>
<clipPath id="clip0_326_2137">
<rect width="97" height="30" fill="white"/>
</clipPath>
</defs>
</svg>
